<svg width="25" height="26" viewBox="0 0 25 26" fill="none" xmlns="http://www.w3.org/2000/svg">
<path d="M12.4756 0.597656C14.5589 0.597656 16.2598 0.62207 17.5781 0.670898C18.7012 0.719727 19.7021 0.915039 20.5811 1.25684C21.4274 1.58236 22.1598 2.05436 22.7783 2.67285C23.3968 3.29134 23.8688 4.02376 24.1943 4.87012C24.5361 5.74902 24.7314 6.75 24.7803 7.87305C24.8291 9.19141 24.8535 10.8923 24.8535 12.9756C24.8535 15.0589 24.8291 16.7598 24.7803 18.0781C24.7314 19.2012 24.5361 20.2021 24.1943 21.0811C23.8688 21.9274 23.3968 22.6598 22.7783 23.2783C22.1598 23.8968 21.4274 24.3688 20.5811 24.6943C19.7021 25.0361 18.7012 25.2314 17.5781 25.2803C16.2598 25.3291 14.5589 25.3535 12.4756 25.3535C10.3923 25.3535 8.69141 25.3291 7.37305 25.2803C6.25 25.2314 5.24902 25.0361 4.37012 24.6943C3.52376 24.3688 2.79134 23.8968 2.17285 23.2783C1.55436 22.6598 1.08236 21.9274 0.756836 21.0811C0.415039 20.2021 0.219727 19.2012 0.170898 18.0781C0.12207 16.7598 0.0976562 15.0589 0.0976562 12.9756C0.0976562 10.8923 0.12207 9.19141 0.170898 7.87305C0.219727 6.75 0.415039 5.74902 0.756836 4.87012C1.08236 4.02376 1.55436 3.29134 2.17285 2.67285C2.79134 2.05436 3.52376 1.58236 4.37012 1.25684C5.24902 0.915039 6.25 0.719727 7.37305 0.670898C8.69141 0.62207 10.3923 0.597656 12.4756 0.597656ZM12.4756 2.20898C10.3109 2.20898 8.54492 2.2334 7.17773 2.28223C6.29883 2.31478 5.48503 2.4694 4.73633 2.74609C3.56445 3.23438 2.73438 4.06445 2.24609 5.23633C1.9694 5.98503 1.81478 6.79883 1.78223 7.67773C1.7334 9.04492 1.70898 10.8109 1.70898 12.9756C1.70898 15.1403 1.7334 16.9062 1.78223 18.2734C1.81478 19.1523 1.9694 19.9661 2.24609 20.7148C2.73438 21.8867 3.56445 22.7168 4.73633 23.2051C5.48503 23.4818 6.29883 23.6364 7.17773 23.6689C8.54492 23.7178 10.3109 23.7422 12.4756 23.7422C14.6403 23.7422 16.4062 23.7178 17.7734 23.6689C18.6523 23.6364 19.4661 23.4818 20.2148 23.2051C21.3867 22.7168 22.2168 21.8867 22.7051 20.7148C22.9818 19.9661 23.1364 19.1523 23.1689 18.2734C23.2178 16.9062 23.2422 15.1403 23.2422 12.9756C23.2422 10.8109 23.2178 9.04492 23.1689 7.67773C23.1364 6.79883 22.9818 5.98503 22.7051 5.23633C22.2168 4.06445 21.3867 3.23438 20.2148 2.74609C19.4661 2.4694 18.6523 2.31478 17.7734 2.28223C16.4062 2.2334 14.6403 2.20898 12.4756 2.20898ZM12.4756 17.9316C13.8428 17.9316 15.0106 17.4474 15.979 16.479C16.9474 15.5106 17.4316 14.3428 17.4316 12.9756C17.4316 11.6084 16.9474 10.4406 15.979 9.47217C15.0106 8.50374 13.8428 8.01953 12.4756 8.01953C11.1084 8.01953 9.94059 8.50374 8.97217 9.47217C8.00374 10.4406 7.51953 11.6084 7.51953 12.9756C7.51953 14.3428 8.00374 15.5106 8.97217 16.479C9.94059 17.4474 11.1084 17.9316 12.4756 17.9316ZM12.4756 6.62793C14.2334 6.62793 15.7308 7.24642 16.9678 8.4834C18.2048 9.72038 18.8232 11.2178 18.8232 12.9756C18.8232 14.7334 18.2048 16.2308 16.9678 17.4678C15.7308 18.7048 14.2334 19.3232 12.4756 19.3232C10.7178 19.3232 9.22038 18.7048 7.9834 17.4678C6.74642 16.2308 6.12793 14.7334 6.12793 12.9756C6.12793 11.2178 6.74642 9.72038 7.9834 8.4834C9.22038 7.24642 10.7178 6.62793 12.4756 6.62793ZM20.5811 6.38379C20.5811 6.79069 20.4346 7.13656 20.1416 7.42139C19.8486 7.70622 19.4906 7.84863 19.0674 7.84863C18.6605 7.84863 18.3146 7.70622 18.0298 7.42139C17.745 7.13656 17.6025 6.79069 17.6025 6.38379C17.6025 5.96061 17.745 5.60254 18.0298 5.30957C18.3146 5.0166 18.6605 4.87012 19.0674 4.87012C19.4743 4.87012 19.8283 5.02067 20.1294 5.32178C20.4305 5.62288 20.5811 5.97689 20.5811 6.38379Z" fill="white"/>
</svg>
