<?xml version="1.0" encoding="UTF-8" standalone="no"?>
<!DOCTYPE svg PUBLIC "-//W3C//DTD SVG 1.1//EN" "http://www.w3.org/Graphics/SVG/1.1/DTD/svg11.dtd">
<svg width="100%" height="100%" viewBox="0 0 70 70" version="1.1" xmlns="http://www.w3.org/2000/svg" xmlns:xlink="http://www.w3.org/1999/xlink" xml:space="preserve" xmlns:serif="http://www.serif.com/" style="fill-rule:evenodd;clip-rule:evenodd;stroke-linejoin:round;stroke-miterlimit:2;">
    <g transform="matrix(1,0,0,1,-12.1748,-12.8791)">
        <path d="M12.175,12.879L12.175,82.794L82.09,82.794L82.09,12.879L12.175,12.879ZM46.062,60.447L14.375,60.447L14.375,80.594L46.062,80.594L46.062,60.447ZM48.262,59.551L48.262,80.594L69.756,80.594C59.787,77.207 51.851,69.421 48.262,59.551ZM79.845,15.118L79.845,80.216C62.368,79.636 48.378,65.285 48.378,47.667C48.378,30.049 62.368,15.698 79.845,15.118L79.845,15.118ZM14.375,15.079L14.375,58.247L46.062,58.247L46.062,15.079L14.375,15.079ZM30.666,17.883C23.559,17.883 17.79,23.653 17.79,30.759C17.79,37.866 23.559,43.636 30.666,43.636C37.773,43.636 43.543,37.866 43.543,30.759C43.543,23.653 37.773,17.883 30.666,17.883ZM30.666,20.083C36.559,20.083 41.343,24.867 41.343,30.759C41.343,36.652 36.559,41.436 30.666,41.436C24.774,41.436 19.99,36.652 19.99,30.759C19.99,24.867 24.774,20.083 30.666,20.083ZM68.803,15.079L48.262,15.079L48.262,35.784C51.738,26.228 59.284,18.627 68.803,15.079Z" style="fill:white;"/>
    </g>
</svg>
