<?xml version="1.0" encoding="UTF-8" standalone="no"?>
<!DOCTYPE svg PUBLIC "-//W3C//DTD SVG 1.1//EN" "http://www.w3.org/Graphics/SVG/1.1/DTD/svg11.dtd">
<svg width="100%" height="100%" viewBox="0 0 70 70" version="1.1" xmlns="http://www.w3.org/2000/svg" xmlns:xlink="http://www.w3.org/1999/xlink" xml:space="preserve" xmlns:serif="http://www.serif.com/" style="fill-rule:evenodd;clip-rule:evenodd;stroke-linejoin:round;stroke-miterlimit:2;">
    <g transform="matrix(1,0,0,1,-12.3748,-13.0791)">
        <path d="M12.375,13.079L12.375,82.594L81.89,82.594L81.89,13.079L12.375,13.079ZM14.175,60.247L14.175,80.794L46.262,80.794L46.262,60.247L14.175,60.247ZM48.062,58.355L48.062,80.794L71.041,80.794C60.177,77.551 51.556,69.11 48.062,58.355ZM80.045,14.912L80.045,80.422C62.364,79.945 48.178,65.463 48.178,47.667C48.178,29.871 62.364,15.389 80.045,14.912L80.045,14.912ZM14.175,14.879L14.175,58.447L46.262,58.447L46.262,14.879L14.175,14.879ZM30.666,18.083C23.67,18.083 17.99,23.763 17.99,30.759C17.99,37.756 23.67,43.436 30.666,43.436C37.663,43.436 43.343,37.756 43.343,30.759C43.343,23.763 37.663,18.083 30.666,18.083ZM30.666,19.883C36.669,19.883 41.543,24.756 41.543,30.759C41.543,36.762 36.669,41.636 30.666,41.636C24.663,41.636 19.79,36.762 19.79,30.759C19.79,24.756 24.663,19.883 30.666,19.883ZM69.969,14.879L48.062,14.879L48.062,36.979C51.439,26.581 59.611,18.345 69.969,14.879Z" style="fill:white;"/>
    </g>
</svg>
