<svg width="34" height="34" viewBox="0 0 34 34" fill="none" xmlns="http://www.w3.org/2000/svg">
<path d="M28.3333 4.25H5.66667C5.29094 4.25 4.93061 4.39926 4.66493 4.66493C4.39926 4.93061 4.25 5.29094 4.25 5.66667V28.3333C4.25 28.7091 4.39926 29.0694 4.66493 29.3351C4.93061 29.6007 5.29094 29.75 5.66667 29.75H28.3333C28.7091 29.75 29.0694 29.6007 29.3351 29.3351C29.6007 29.0694 29.75 28.7091 29.75 28.3333V5.66667C29.75 5.29094 29.6007 4.93061 29.3351 4.66493C29.0694 4.39926 28.7091 4.25 28.3333 4.25ZM25.4348 10.2921L24.0663 11.6025C24.0085 11.6466 23.9639 11.7057 23.9375 11.7734C23.911 11.8411 23.9036 11.9148 23.9162 11.9864V21.6212C23.9036 21.6928 23.911 21.7665 23.9375 21.8342C23.9639 21.9019 24.0085 21.961 24.0663 22.0051L25.4008 23.3169V23.6059H18.6844V23.3169L20.0685 21.9739C20.2059 21.8379 20.2059 21.7968 20.2059 21.59V13.8012L16.3582 23.5705H15.8369L11.3588 13.8012V20.349C11.3411 20.4851 11.3544 20.6234 11.3976 20.7536C11.4407 20.8839 11.5127 21.0027 11.6082 21.1012L13.4087 23.2843V23.5719H8.30308V23.2843L10.1037 21.1012C10.1984 21.0027 10.2688 20.8833 10.3092 20.7527C10.3495 20.6221 10.3587 20.4838 10.336 20.349V12.7783C10.3466 12.6747 10.3326 12.57 10.2952 12.4728C10.2578 12.3756 10.198 12.2885 10.1207 12.2188L8.51983 10.2921V10.0045H13.4867L17.3258 18.4237L20.7003 10.0045H25.4362V10.2921H25.4348Z" fill="white"/>
</svg>
