<?xml version="1.0" encoding="UTF-8" standalone="no"?>
<!DOCTYPE svg PUBLIC "-//W3C//DTD SVG 1.1//EN" "http://www.w3.org/Graphics/SVG/1.1/DTD/svg11.dtd">
<svg width="100%" height="100%" viewBox="0 0 75 76" version="1.1" xmlns="http://www.w3.org/2000/svg" xmlns:xlink="http://www.w3.org/1999/xlink" xml:space="preserve" xmlns:serif="http://www.serif.com/" style="fill-rule:evenodd;clip-rule:evenodd;stroke-linejoin:round;stroke-miterlimit:2;">
    <g transform="matrix(1,0,0,1,-7.27479,-7.9791)">
        <g transform="matrix(0.0707473,0,0,0.0707473,6.76012,7.4146)">
            <path d="M13.12,1068.09L13.275,1068.09L1007.58,1068.09C1025.03,1069.84 1042.76,1070.73 1060.69,1070.73C1063.95,1070.73 1066.6,1068.14 1066.69,1064.9C1067.13,1064.06 1067.39,1063.11 1067.39,1062.09L1067.39,13.979C1067.39,10.665 1064.7,7.979 1061.39,7.979L13.275,7.979C9.961,7.979 7.275,10.665 7.275,13.979L7.275,1062.09L7.277,1062.25L7.283,1062.4L7.292,1062.55L7.306,1062.7L7.323,1062.86L7.344,1063L7.369,1063.15L7.397,1063.3L7.428,1063.44L7.464,1063.59L7.502,1063.73L7.545,1063.88L7.59,1064.02L7.639,1064.15L7.691,1064.29L7.746,1064.43L7.805,1064.56L7.866,1064.69L7.931,1064.82L7.999,1064.95L8.07,1065.08L8.143,1065.2L8.22,1065.32L8.3,1065.44L8.382,1065.56L8.467,1065.68L8.555,1065.8L8.645,1065.91L8.738,1066.02L8.833,1066.12L8.932,1066.23L9.032,1066.33L9.135,1066.43L9.241,1066.53L9.348,1066.63L9.458,1066.72L9.57,1066.81L9.685,1066.9L9.801,1066.98L9.92,1067.07L10.041,1067.14L10.164,1067.22L10.288,1067.3L10.415,1067.37L10.543,1067.43L10.674,1067.5L10.806,1067.56L10.939,1067.62L11.075,1067.67L11.212,1067.73C11.212,1067.73 11.35,1067.78 11.35,1067.78L11.491,1067.82L11.632,1067.86L11.775,1067.9L11.92,1067.94L12.066,1067.97L12.213,1068L12.361,1068.02L12.511,1068.04L12.661,1068.06L12.813,1068.07L12.966,1068.08L13.12,1068.09ZM19.275,722.2L19.275,1056.09L531.788,1056.09L531.788,722.2L531.788,722.2L19.275,722.2ZM543.788,647.364L543.788,1056.09L936.792,1056.09C738.513,1008.32 583.918,848.478 543.788,647.364ZM1054.69,1056.09L1008.19,1056.09C748.343,1029.77 545.583,810.375 545.583,543.627C545.583,261.143 772.968,31.769 1054.69,28.553L1054.69,28.553L1054.69,1056.09ZM19.275,19.979L19.275,710.2L531.788,710.2L531.788,19.979L19.275,19.979C19.275,19.979 19.275,19.979 19.275,19.979ZM282.464,85.428C178.549,85.428 94.183,169.794 94.183,273.71C94.183,377.625 178.549,461.991 282.464,461.991C386.38,461.991 470.746,377.625 470.746,273.71C470.746,169.794 386.38,85.428 282.464,85.428ZM282.464,97.428C379.757,97.428 458.746,176.417 458.746,273.71C458.746,371.002 379.757,449.991 282.464,449.991C185.172,449.991 106.183,371.002 106.183,273.71C106.183,176.417 185.172,97.428 282.464,97.428ZM999.968,19.979L543.788,19.979L543.788,439.889C588.115,217.831 771.931,46.12 999.968,19.979Z" style="fill:white;"/>
        </g>
    </g>
</svg>
