<svg clip-rule="evenodd" fill-rule="evenodd" stroke-linejoin="round" stroke-miterlimit="2" viewBox="0 0 1061 1063" xmlns="http://www.w3.org/2000/svg"><path d="m13.12 1068.09h.155 994.305c17.45 1.75 35.18 2.64 53.11 2.64 3.26 0 5.91-2.59 6-5.83.44-.84.7-1.79.7-2.81v-1048.111c0-3.314-2.69-6-6-6h-1048.115c-3.314 0-6 2.686-6 6v1048.111l.002.16.006.15.009.15.014.15.017.16.021.14.025.15.028.15.031.14.036.15.038.14.043.15.045.14.049.13.052.14.055.14.059.13.061.13.065.13.068.13.071.13.073.12.077.12.08.12.082.12.085.12.088.12.09.11.093.11.095.1.099.11.1.1.103.1.106.1.107.1.11.09.112.09.115.09.116.08.119.09.121.07.123.08.124.08.127.07.128.06.131.07.132.06.133.06.136.05.137.06s.138.05.138.05l.141.04.141.04.143.04.145.04.146.03.147.03.148.02.15.02.15.02.152.01.153.01zm6.155-345.89v333.89h512.513v-333.89zm524.513-74.836v408.726h393.004c-198.279-47.77-352.874-207.612-393.004-408.726zm510.902 408.726h-46.5c-259.847-26.32-462.607-245.715-462.607-512.463 0-282.484 227.385-511.858 509.107-515.074zm-1035.415-1036.111v690.221h512.513v-690.221zm263.189 65.449c-103.915 0-188.281 84.366-188.281 188.282 0 103.915 84.366 188.281 188.281 188.281 103.916 0 188.282-84.366 188.282-188.281 0-103.916-84.366-188.282-188.282-188.282zm0 12c97.293 0 176.282 78.989 176.282 176.282 0 97.292-78.989 176.281-176.282 176.281-97.292 0-176.281-78.989-176.281-176.281 0-97.293 78.989-176.282 176.281-176.282zm717.504-77.449h-456.18v419.91c44.327-222.058 228.143-393.769 456.18-419.91z" fill="#fff" transform="translate(-7.27479 -7.9791)"/></svg>