<svg width="28" height="22" viewBox="0 0 28 22" fill="none" xmlns="http://www.w3.org/2000/svg">
<path d="M27.09 2.88103C26.1097 3.3153 25.0699 3.60021 24.0051 3.72627C25.1266 3.05525 25.9658 1.99934 26.3664 0.755348C25.3123 1.38113 24.1588 1.8218 22.9559 2.05823C22.4533 1.52219 21.846 1.09508 21.1716 0.803354C20.4973 0.511631 19.7701 0.361514 19.0354 0.362308C16.0692 0.362308 13.664 2.76679 13.664 5.73363C13.664 6.15421 13.7116 6.56459 13.8034 6.95797C9.33924 6.73391 5.38164 4.59531 2.73236 1.34525C2.25468 2.16501 2.00368 3.09709 2.0051 4.04587C2.00439 4.93021 2.22214 5.80104 2.63901 6.58097C3.05587 7.36089 3.65894 8.02577 4.39462 8.51653C3.54179 8.48944 2.70777 8.25911 1.96192 7.84469C1.96124 7.86713 1.96124 7.88923 1.96124 7.91235C1.96124 10.514 3.81254 12.6849 6.26938 13.179C5.47828 13.3931 4.64883 13.4245 3.84382 13.2708C4.52722 15.4043 6.51078 16.9577 8.8612 17.0012C6.95853 18.4944 4.60899 19.3043 2.1904 19.3007C1.7569 19.3007 1.32952 19.2755 0.908936 19.2255C3.36487 20.8035 6.22318 21.6411 9.14237 21.6382C19.0221 21.6382 24.4247 13.454 24.4247 6.35685C24.4247 6.12429 24.4193 5.89207 24.4091 5.66121C25.4612 4.90161 26.3691 3.96008 27.09 2.88103Z" fill="white"/>
</svg>
